<?xml version="1.0" encoding="UTF-8" standalone="no"?><!DOCTYPE svg PUBLIC "-//W3C//DTD SVG 1.1//EN" "http://www.w3.org/Graphics/SVG/1.1/DTD/svg11.dtd"><svg width="100%" height="100%" viewBox="0 0 874 1262" version="1.1" xmlns="http://www.w3.org/2000/svg" xmlns:xlink="http://www.w3.org/1999/xlink" xml:space="preserve" style="fill-rule:evenodd;clip-rule:evenodd;stroke-linejoin:round;stroke-miterlimit:1.41421;"><g><path d="M870.802,39.168l2.662,740.966c1.632,454.063 -234.887,478.808 -433.29,479.521c-198.402,0.713 -435.89,-25.28 -437.511,-476.392l-2.663,-740.966l870.802,-3.129Z" style="fill:#fff;"/><path d="M89.641,41.975l2.896,805.82c1.146,318.851 162.569,414.665 360.973,413.952c-198.403,0.713 -449.198,-19.417 -450.847,-478.484l-2.663,-740.966l89.641,-0.322Z" style="fill:#bfbfbf;"/><path d="M435.255,0.031c240.304,-0.864 435.466,16.673 435.547,39.137c0.08,22.464 -194.951,41.403 -435.255,42.267c-240.304,0.863 -435.466,-16.674 -435.547,-39.138c-0.081,-22.464 194.95,-41.403 435.255,-42.266Z" style="fill:#888;"/></g></svg>